<?xml version="1.0" standalone="no"?>
<!DOCTYPE svg PUBLIC "-//W3C//DTD SVG 20010904//EN"
 "http://www.w3.org/TR/2001/REC-SVG-20010904/DTD/svg10.dtd">
<svg version="1.0" xmlns="http://www.w3.org/2000/svg"
 width="700.000000pt" height="700.000000pt" viewBox="0 0 700.000000 700.000000"
 preserveAspectRatio="xMidYMid meet">
<metadata>
Created by potrace 1.14, written by Peter Selinger 2001-2017
</metadata>
<g transform="translate(0.000000,700.000000) scale(0.100000,-0.100000)"
fill="#000000" stroke="none">
<path d="M1150 6985 c-174 -35 -327 -116 -453 -240 -137 -135 -234 -334 -253
-520 -9 -80 -11 -514 -3 -527 6 -9 155 -12 379 -9 l55 1 0 233 c-1 263 4 307
47 393 62 128 185 219 323 240 78 11 1366 11 1373 -1 4 -5 7 -707 7 -1560 l1
-1550 22 -42 c42 -81 135 -130 224 -119 48 6 62 14 597 336 249 149 458 273
464 276 7 2 39 -13 72 -34 33 -21 134 -83 225 -137 91 -54 181 -108 200 -120
19 -12 114 -69 210 -125 96 -57 182 -109 190 -115 8 -7 42 -27 75 -45 51 -28
70 -33 125 -33 97 -1 160 40 201 128 18 38 19 106 19 1595 l0 1555 248 -2
c155 -1 265 -6 292 -13 155 -42 271 -153 316 -305 17 -57 18 -192 19 -2735 0
-2491 -1 -2680 -17 -2742 -44 -176 -187 -303 -365 -326 -101 -13 -4471 -6
-4527 7 -166 39 -297 174 -330 340 -7 33 -12 154 -11 288 0 151 -3 233 -10
233 -21 1 -264 1 -345 1 l-85 -1 1 -242 c2 -308 7 -356 56 -493 96 -266 312
-462 603 -549 70 -21 73 -21 2385 -23 l2315 -2 95 25 c211 54 385 170 511 343
73 99 140 272 156 406 8 69 8 5365 -1 5440 -17 154 -59 272 -142 395 -122 182
-290 300 -524 368 -50 15 -277 16 -2365 18 -1874 2 -2322 0 -2375 -11z"/>
<path d="M580 5236 c-48 -20 -99 -67 -120 -111 -19 -39 -22 -64 -23 -178 l-2
-132 -121 -2 c-154 -2 -194 -13 -248 -66 -107 -107 -78 -278 59 -350 39 -20
52 -21 530 -21 l490 -1 44 23 c139 73 164 257 48 359 -51 45 -95 56 -236 57
l-125 1 -1 135 c-2 116 -5 141 -23 176 -51 99 -177 150 -272 110z"/>
<path d="M598 3930 c-42 -12 -91 -45 -114 -77 -39 -54 -46 -88 -47 -223 l0
-130 -131 0 c-170 -1 -213 -17 -276 -110 -19 -27 -25 -49 -26 -100 -2 -97 39
-166 126 -208 32 -15 84 -17 530 -17 551 0 523 -3 594 70 113 116 46 326 -114
360 -8 2 -71 4 -140 4 l-125 1 -1 128 c0 149 -4 165 -44 220 -50 69 -152 105
-232 82z"/>
<path d="M615 2620 c-72 -16 -128 -61 -157 -128 -16 -36 -20 -68 -21 -173 0
-124 -1 -129 -21 -130 -12 0 -64 0 -116 0 -161 1 -237 -36 -283 -138 -35 -79
-9 -185 59 -245 63 -55 68 -56 589 -55 453 0 482 1 520 20 135 65 168 244 64
348 -62 63 -95 70 -319 71 l-56 0 1 108 c1 59 -3 127 -7 152 -20 112 -142 194
-253 170z"/>
</g>
</svg>
