<svg width="331" height="92" viewBox="0 0 331 92" fill="none" xmlns="http://www.w3.org/2000/svg">
<rect x="1.5" y="1.5" width="328" height="89" fill="#FEEDE3" stroke="#D6BBB2" stroke-width="3"/>
<path d="M102.414 60H97.6882V35.282H102.414V60ZM113.079 42.694L112.535 41.47L112.603 42.626V60H108.455V35.282H113.147L123.585 51.908L124.061 53.268L123.993 51.908V35.282H128.277V60H123.993L113.079 42.694ZM141.548 38.24C140.528 38.24 139.712 38.4893 139.1 38.988C138.488 39.4867 138.182 40.1213 138.182 40.892C138.182 41.6627 138.465 42.3313 139.032 42.898C139.621 43.4647 140.335 43.9973 141.174 44.496C142.035 44.9947 142.964 45.5047 143.962 46.026C144.982 46.5473 145.911 47.148 146.75 47.828C147.611 48.508 148.325 49.3127 148.892 50.242C149.481 51.1713 149.776 52.2933 149.776 53.608C149.776 54.696 149.56 55.6707 149.13 56.532C148.722 57.3707 148.132 58.0847 147.362 58.674C146.614 59.2407 145.707 59.6827 144.642 60C143.576 60.2947 142.398 60.442 141.106 60.442C140.131 60.442 138.998 60.306 137.706 60.034C136.436 59.7847 135.02 59.2973 133.456 58.572L134.748 55.41C135.972 55.9993 137.116 56.4073 138.182 56.634C139.27 56.838 140.244 56.94 141.106 56.94C141.718 56.94 142.273 56.8607 142.772 56.702C143.293 56.5207 143.735 56.2827 144.098 55.988C144.483 55.6933 144.778 55.3533 144.982 54.968C145.186 54.5827 145.288 54.1633 145.288 53.71C145.288 52.894 145.004 52.1913 144.438 51.602C143.871 51.0127 143.157 50.4687 142.296 49.97C141.434 49.4487 140.505 48.9387 139.508 48.44C138.533 47.9413 137.615 47.3747 136.754 46.74C135.892 46.0827 135.178 45.3233 134.612 44.462C134.045 43.578 133.762 42.524 133.762 41.3C133.762 40.1893 133.954 39.226 134.34 38.41C134.748 37.594 135.292 36.9253 135.972 36.404C136.652 35.8827 137.445 35.4973 138.352 35.248C139.258 34.976 140.222 34.84 141.242 34.84C141.763 34.84 142.262 34.8627 142.738 34.908C143.236 34.9307 143.746 34.9873 144.268 35.078C144.812 35.146 145.367 35.2593 145.934 35.418C146.523 35.554 147.18 35.7353 147.906 35.962L146.648 39.056C145.628 38.7613 144.71 38.5573 143.894 38.444C143.078 38.308 142.296 38.24 141.548 38.24ZM151.515 38.784V35.282H169.263V38.784H162.803V60H157.975V38.784H151.515ZM177.123 54.594L175.321 60H170.527L179.401 35.282H184.161L193.035 60H188.003L181.883 41.606L181.611 40.348L181.305 41.674L178.415 50.48L178.007 51.16L178.517 51.092H181.101C181.6 51.092 182.03 51.2053 182.393 51.432C182.756 51.6587 183.073 51.942 183.345 52.282C183.617 52.622 183.844 53.0073 184.025 53.438C184.229 53.846 184.388 54.2313 184.501 54.594H177.123ZM196.832 35.282H201.728V56.464H210.636V60H196.832V35.282ZM214.894 35.282H219.79V56.464H228.698V60H214.894V35.282ZM246.517 54.594L244.715 60H239.921L248.795 35.282H253.555L262.429 60H257.397L251.277 41.606L251.005 40.348L250.699 41.674L247.809 50.48L247.401 51.16L247.911 51.092H250.495C250.994 51.092 251.425 51.2053 251.787 51.432C252.15 51.6587 252.467 51.942 252.739 52.282C253.011 52.622 253.238 53.0073 253.419 53.438C253.623 53.846 253.782 54.2313 253.895 54.594H246.517ZM283.736 42.558C283.736 43.6913 283.51 44.7113 283.056 45.618C282.626 46.502 282.036 47.2727 281.288 47.93C280.563 48.5647 279.724 49.0747 278.772 49.46C277.843 49.8453 276.868 50.0833 275.848 50.174C275.327 50.2193 274.783 50.2307 274.216 50.208C273.65 50.1627 273.049 50.0493 272.414 49.868C272.55 49.5507 272.698 49.222 272.856 48.882C273.038 48.5193 273.242 48.1907 273.468 47.896C273.718 47.6013 273.99 47.352 274.284 47.148C274.602 46.944 274.953 46.8193 275.338 46.774C275.814 46.7287 276.256 46.5927 276.664 46.366C277.072 46.1167 277.424 45.8107 277.718 45.448C278.036 45.0627 278.285 44.6207 278.466 44.122C278.648 43.6233 278.738 43.102 278.738 42.558C278.738 41.9687 278.625 41.4247 278.398 40.926C278.172 40.4047 277.843 39.9513 277.412 39.566C277.004 39.1807 276.506 38.8747 275.916 38.648C275.35 38.4213 274.715 38.308 274.012 38.308C273.695 38.308 273.423 38.3193 273.196 38.342C272.992 38.342 272.788 38.3533 272.584 38.376C272.38 38.376 272.165 38.3987 271.938 38.444C271.712 38.4667 271.451 38.4893 271.156 38.512V60H266.26V35.588C267.167 35.4293 267.972 35.3047 268.674 35.214C269.377 35.1007 270.012 35.0213 270.578 34.976C271.168 34.908 271.734 34.8627 272.278 34.84C272.822 34.8173 273.4 34.806 274.012 34.806C275.395 34.806 276.676 34.9873 277.854 35.35C279.033 35.7127 280.053 36.234 280.914 36.914C281.798 37.5713 282.49 38.376 282.988 39.328C283.487 40.28 283.736 41.3567 283.736 42.558ZM305.584 42.558C305.584 43.6913 305.357 44.7113 304.904 45.618C304.473 46.502 303.884 47.2727 303.136 47.93C302.411 48.5647 301.572 49.0747 300.62 49.46C299.691 49.8453 298.716 50.0833 297.696 50.174C297.175 50.2193 296.631 50.2307 296.064 50.208C295.497 50.1627 294.897 50.0493 294.262 49.868C294.398 49.5507 294.545 49.222 294.704 48.882C294.885 48.5193 295.089 48.1907 295.316 47.896C295.565 47.6013 295.837 47.352 296.132 47.148C296.449 46.944 296.801 46.8193 297.186 46.774C297.662 46.7287 298.104 46.5927 298.512 46.366C298.92 46.1167 299.271 45.8107 299.566 45.448C299.883 45.0627 300.133 44.6207 300.314 44.122C300.495 43.6233 300.586 43.102 300.586 42.558C300.586 41.9687 300.473 41.4247 300.246 40.926C300.019 40.4047 299.691 39.9513 299.26 39.566C298.852 39.1807 298.353 38.8747 297.764 38.648C297.197 38.4213 296.563 38.308 295.86 38.308C295.543 38.308 295.271 38.3193 295.044 38.342C294.84 38.342 294.636 38.3533 294.432 38.376C294.228 38.376 294.013 38.3987 293.786 38.444C293.559 38.4667 293.299 38.4893 293.004 38.512V60H288.108V35.588C289.015 35.4293 289.819 35.3047 290.522 35.214C291.225 35.1007 291.859 35.0213 292.426 34.976C293.015 34.908 293.582 34.8627 294.126 34.84C294.67 34.8173 295.248 34.806 295.86 34.806C297.243 34.806 298.523 34.9873 299.702 35.35C300.881 35.7127 301.901 36.234 302.762 36.914C303.646 37.5713 304.337 38.376 304.836 39.328C305.335 40.28 305.584 41.3567 305.584 42.558Z" fill="black"/>
<path d="M48.0747 26.2109L28 28.8508V45.5414H48.0747V26.2109ZM28 64.2472L48.0747 67.1045V47.4586H28V64.2472V64.2472ZM50.2889 47.7097L50.3685 67.2423L77 71V47.7097H50.2889ZM77 22L50.4481 25.8097V45.4526H77V22Z" fill="#D6BBB2"/>
</svg>
