<svg width="397" height="80" viewBox="0 0 397 80" fill="none" xmlns="http://www.w3.org/2000/svg">
<path d="M387.953 18.4209C387.684 18.1514 387.318 18 386.937 18C386.556 18 386.19 18.1514 385.921 18.4209L381.186 23.1559L391.843 33.8134L396.578 29.0812C396.712 28.9477 396.818 28.7891 396.89 28.6144C396.963 28.4398 397 28.2526 397 28.0635C397 27.8744 396.963 27.6872 396.89 27.5126C396.818 27.3379 396.712 27.1793 396.578 27.0458L387.953 18.4209V18.4209ZM389.81 35.846L379.153 25.1885L360.466 43.8758H361.062C361.443 43.8758 361.808 44.0273 362.078 44.2968C362.347 44.5664 362.499 44.932 362.499 45.3133V46.7508H363.936C364.318 46.7508 364.683 46.9022 364.953 47.1718C365.222 47.4414 365.374 47.807 365.374 48.1883V49.6257H366.811C367.192 49.6257 367.558 49.7772 367.828 50.0468C368.097 50.3163 368.249 50.682 368.249 51.0632V52.5007H369.686C370.067 52.5007 370.433 52.6521 370.703 52.9217C370.972 53.1913 371.124 53.5569 371.124 53.9382V54.5333L389.81 35.846V35.846ZM368.341 57.3163C368.28 57.1554 368.249 56.985 368.249 56.8131V55.3757H366.811C366.43 55.3757 366.064 55.2242 365.795 54.9546C365.525 54.6851 365.374 54.3194 365.374 53.9382V52.5007H363.936C363.555 52.5007 363.19 52.3493 362.92 52.0797C362.65 51.8101 362.499 51.4445 362.499 51.0632V49.6257H361.062C360.68 49.6257 360.315 49.4743 360.045 49.2047C359.776 48.9351 359.624 48.5695 359.624 48.1883V46.7508H358.187C358.015 46.7505 357.844 46.7193 357.684 46.6588L357.169 47.1705C357.032 47.3085 356.924 47.4728 356.853 47.6535L351.103 62.0283C350.998 62.2896 350.973 62.5757 351.029 62.8514C351.086 63.127 351.222 63.38 351.421 63.579C351.62 63.7779 351.873 63.9141 352.149 63.9707C352.424 64.0272 352.71 64.0016 352.972 63.8971L367.346 58.1471C367.527 58.0755 367.691 57.9679 367.829 57.8309L368.341 57.3191V57.3163Z" fill="#351918"/>
<path d="M12.072 65.024C8.488 65.024 5.62933 64.3413 3.496 62.976C1.40533 61.568 0.36 59.52 0.36 56.832C0.36 54.9547 0.850667 53.4613 1.832 52.352C2.856 51.2 4.17867 50.624 5.8 50.624C7.25067 50.624 8.36 51.1787 9.128 52.288C7.54933 53.2267 6.76 54.7627 6.76 56.896C6.76 58.1333 7.18667 59.1787 8.04 60.032C8.936 60.8427 10.1947 61.248 11.816 61.248C13.6933 61.248 15.3147 60.608 16.68 59.328C18.088 58.048 19.1333 56.4053 19.816 54.4C20.5413 52.352 20.904 50.1973 20.904 47.936C20.904 45.12 20.2853 43.0933 19.048 41.856C17.8107 40.576 15.976 39.936 13.544 39.936H10.856L11.88 35.2H14.184C16.0187 35.2 17.5973 34.6667 18.92 33.6C20.2853 32.5333 21.3093 31.232 21.992 29.696C22.7173 28.1173 23.08 26.6453 23.08 25.28C23.08 23.7013 22.6533 22.4853 21.8 21.632C20.9467 20.736 19.7093 20.288 18.088 20.288C14.0773 20.288 10.8133 22.7413 8.296 27.648L6.824 27.008C7.72 23.424 9.49067 20.7147 12.136 18.88C14.824 17.0027 18.0027 16.064 21.672 16.064C25.256 16.064 27.9867 16.9387 29.864 18.688C31.7413 20.4373 32.68 22.7627 32.68 25.664C32.68 28.4373 31.8267 30.8267 30.12 32.832C28.456 34.7947 26.1093 36.288 23.08 37.312C28.584 38.8907 31.336 42.496 31.336 48.128C31.336 51.1573 30.5467 53.9733 28.968 56.576C27.432 59.136 25.192 61.184 22.248 62.72C19.3467 64.256 15.9547 65.024 12.072 65.024ZM42.305 64.384C39.873 64.384 37.8463 63.552 36.225 61.888C34.6037 60.224 33.793 57.6213 33.793 54.08C33.793 50.9227 34.4117 47.616 35.649 44.16C36.929 40.6613 38.8063 37.7173 41.281 35.328C43.7983 32.896 46.785 31.68 50.241 31.68C51.9903 31.68 53.2917 31.9787 54.145 32.576C54.9983 33.1733 55.425 33.9627 55.425 34.944V35.392L56.129 32H65.345L60.737 53.76C60.5663 54.4 60.481 55.0827 60.481 55.808C60.481 57.6427 61.3557 58.56 63.105 58.56C64.2997 58.56 65.3237 58.0053 66.177 56.896C67.073 55.7867 67.777 54.336 68.289 52.544H70.977C69.3983 57.152 67.4357 60.288 65.089 61.952C62.785 63.5733 60.4597 64.384 58.113 64.384C56.321 64.384 54.8703 63.8933 53.761 62.912C52.6943 61.888 52.0543 60.416 51.841 58.496C50.6037 60.2453 49.217 61.6747 47.681 62.784C46.1877 63.8507 44.3957 64.384 42.305 64.384ZM46.465 58.176C47.5317 58.176 48.577 57.6853 49.601 56.704C50.6677 55.68 51.393 54.2933 51.777 52.544L54.849 38.08C54.849 37.5253 54.6357 36.992 54.209 36.48C53.7823 35.9253 53.121 35.648 52.225 35.648C50.5183 35.648 48.9823 36.6507 47.617 38.656C46.2517 40.6187 45.185 43.008 44.417 45.824C43.649 48.5973 43.265 51.0507 43.265 53.184C43.265 55.3173 43.5637 56.6827 44.161 57.28C44.801 57.8773 45.569 58.176 46.465 58.176ZM123.929 52.544C121.241 60.4373 117.273 64.384 112.025 64.384C109.593 64.384 107.715 63.744 106.393 62.464C105.113 61.1413 104.472 59.52 104.472 57.6C104.472 55.936 104.921 53.0987 105.817 49.088L107.673 40.768L96.0885 64H88.5365L86.8085 37.184C86.0405 38.08 85.3578 39.3813 84.7605 41.088C84.1632 42.752 83.5872 45.0133 83.0325 47.872C82.2218 52.0533 81.4752 55.2533 80.7925 57.472C80.1525 59.6907 79.2352 61.3973 78.0405 62.592C76.8885 63.7867 75.3312 64.384 73.3685 64.384C71.0645 64.384 69.2512 63.68 67.9285 62.272C66.5632 60.8213 65.8805 59.072 65.8805 57.024C65.8805 55.5733 66.2218 54.4213 66.9045 53.568C67.5872 52.672 68.5258 52.224 69.7205 52.224C70.7445 52.224 71.5765 52.544 72.2165 53.184C72.8565 53.824 73.1765 54.592 73.1765 55.488C73.1765 56.512 72.9205 57.3013 72.4085 57.856C71.8965 58.368 71.2992 58.5813 70.6165 58.496C70.6165 60.1173 71.4485 60.928 73.1125 60.928C74.3072 60.928 75.2885 60.5013 76.0565 59.648C76.8245 58.752 77.4858 57.3013 78.0405 55.296C78.6378 53.2907 79.2778 50.3893 79.9605 46.592C80.8992 41.1733 82.3072 37.3973 84.1845 35.264C86.1045 33.088 88.6005 32 91.6725 32H94.5525L95.7685 56.576L107.865 32H118.233L114.841 47.872C114.414 49.7067 114.051 51.3067 113.753 52.672C113.454 54.0373 113.305 54.976 113.305 55.488C113.305 57.28 114.158 58.176 115.865 58.176C117.059 58.176 118.019 57.7707 118.745 56.96C119.47 56.1493 120.302 54.6773 121.241 52.544H123.929ZM130.402 64.384C127.245 64.384 124.791 63.5733 123.042 61.952C121.293 60.288 120.418 57.7067 120.418 54.208C120.418 51.264 120.994 48.0213 122.146 44.48C123.298 40.9387 125.175 37.888 127.778 35.328C130.381 32.7253 133.687 31.424 137.698 31.424C142.391 31.424 144.738 33.472 144.738 37.568C144.738 39.9573 144.055 42.1547 142.69 44.16C141.325 46.1653 139.511 47.7867 137.25 49.024C134.989 50.2187 132.578 50.9013 130.018 51.072C129.933 52.352 129.89 53.2053 129.89 53.632C129.89 55.7227 130.253 57.152 130.978 57.92C131.703 58.6453 132.877 59.008 134.498 59.008C136.802 59.008 138.765 58.4747 140.386 57.408C142.05 56.3413 143.863 54.72 145.826 52.544H148.002C143.266 60.4373 137.399 64.384 130.402 64.384ZM130.53 48C132.109 47.9147 133.602 47.36 135.01 46.336C136.461 45.312 137.613 44.0107 138.466 42.432C139.362 40.8533 139.81 39.1893 139.81 37.44C139.81 35.6907 139.277 34.816 138.21 34.816C136.674 34.816 135.159 36.16 133.666 38.848C132.215 41.536 131.17 44.5867 130.53 48ZM184.725 64.384C182.122 64.384 180.202 63.7013 178.965 62.336C177.77 60.928 177.173 59.2 177.173 57.152C177.173 56.256 177.279 55.2533 177.493 54.144C177.706 52.992 177.919 51.8827 178.132 50.816C178.389 49.7493 178.559 49.0667 178.645 48.768C178.986 47.2747 179.306 45.8027 179.604 44.352C179.903 42.9013 180.053 41.728 180.053 40.832C180.053 38.656 179.285 37.568 177.749 37.568C176.639 37.568 175.658 38.1227 174.805 39.232C173.951 40.2987 173.269 41.7067 172.757 43.456L168.405 64H159.189L163.861 41.92C163.989 41.408 164.053 40.8747 164.053 40.32C164.053 38.4427 163.413 37.504 162.133 37.504C160.938 37.504 159.893 38.0587 158.997 39.168C158.143 40.2347 157.461 41.664 156.949 43.456L152.597 64H143.38L150.165 32H159.381L158.677 35.328C160.853 32.896 163.455 31.68 166.485 31.68C170.239 31.68 172.437 33.5147 173.077 37.184C175.423 33.5573 178.389 31.744 181.972 31.744C184.149 31.744 185.877 32.3413 187.157 33.536C188.437 34.7307 189.077 36.544 189.077 38.976C189.077 40.2133 188.927 41.6 188.629 43.136C188.33 44.6293 187.903 46.464 187.349 48.64C187.007 49.9627 186.687 51.264 186.389 52.544C186.133 53.7813 186.005 54.7627 186.005 55.488C186.005 56.3413 186.197 57.0027 186.581 57.472C186.965 57.9413 187.626 58.176 188.565 58.176C189.845 58.176 190.869 57.728 191.637 56.832C192.405 55.8933 193.173 54.464 193.941 52.544H196.629C195.05 57.2373 193.215 60.3947 191.125 62.016C189.077 63.5947 186.943 64.384 184.725 64.384ZM203.282 64.256C200.124 64.256 197.628 63.4453 195.794 61.824C193.959 60.2027 193.041 57.6427 193.041 54.144C193.041 51.2427 193.639 48.0213 194.834 44.48C196.028 40.9387 197.948 37.888 200.594 35.328C203.239 32.7253 206.567 31.424 210.578 31.424C216.039 31.424 218.77 34.8373 218.77 41.664V41.728C218.898 41.7707 219.132 41.792 219.474 41.792C220.882 41.792 222.503 41.4293 224.338 40.704C226.172 39.936 227.836 39.0187 229.33 37.952L229.906 39.68C228.668 41.0027 227.047 42.1333 225.042 43.072C223.079 43.968 220.924 44.608 218.578 44.992C218.236 48.8747 217.362 52.2667 215.954 55.168C214.546 58.0693 212.732 60.3093 210.514 61.888C208.295 63.4667 205.884 64.256 203.282 64.256ZM205.842 58.496C206.866 58.496 207.89 57.92 208.914 56.768C209.938 55.5733 210.834 53.9733 211.602 51.968C212.37 49.92 212.924 47.6587 213.266 45.184C212.114 44.928 211.538 44.032 211.538 42.496C211.538 40.7467 212.199 39.5947 213.522 39.04C213.436 37.632 213.223 36.672 212.882 36.16C212.54 35.6053 211.943 35.328 211.09 35.328C209.682 35.328 208.316 36.352 206.994 38.4C205.671 40.448 204.604 42.9013 203.794 45.76C202.983 48.6187 202.578 51.136 202.578 53.312C202.578 55.36 202.812 56.7467 203.282 57.472C203.751 58.1547 204.604 58.496 205.842 58.496ZM243.582 64.384C241.534 64.384 239.87 63.744 238.59 62.464C237.352 61.184 236.734 59.264 236.734 56.704C236.734 55.6373 236.904 54.2507 237.246 52.544L237.566 50.944C236.328 52.3093 235.07 53.248 233.79 53.76C232.51 54.272 231.208 54.528 229.885 54.528C227.838 54.528 226.174 53.888 224.894 52.608C223.656 51.328 223.038 49.408 223.038 46.848C223.038 45.7813 223.208 44.3947 223.549 42.688L225.79 32H235.006L232.51 43.904C232.382 44.544 232.318 45.1413 232.318 45.696C232.318 47.4453 232.958 48.32 234.238 48.32C235.475 48.32 236.542 47.808 237.438 46.784C238.376 45.7173 239.016 44.352 239.358 42.688L241.598 32H250.814L246.206 53.76C246.035 54.4 245.95 55.0827 245.95 55.808C245.95 56.6613 246.142 57.28 246.526 57.664C246.952 58.0053 247.635 58.176 248.574 58.176C249.768 58.176 250.792 57.664 251.646 56.64C252.542 55.616 253.246 54.2507 253.757 52.544H256.446C254.867 57.152 252.904 60.288 250.558 61.952C248.254 63.5733 245.928 64.384 243.582 64.384ZM276.982 64.384C274.55 64.384 272.673 63.744 271.35 62.464C270.07 61.1413 269.43 59.52 269.43 57.6C269.43 56.3627 269.921 53.376 270.902 48.64H263.798L260.534 64H251.318L258.102 32H267.318L264.566 44.8H271.734L274.614 32H283.19L279.798 47.872C279.371 49.7067 279.009 51.3067 278.71 52.672C278.411 54.0373 278.262 54.976 278.262 55.488C278.262 57.28 279.115 58.176 280.822 58.176C282.017 58.176 282.977 57.7707 283.702 56.96C284.427 56.1493 285.259 54.6773 286.198 52.544H288.886C286.198 60.4373 282.23 64.384 276.982 64.384ZM292.524 64.384C290.476 64.384 288.812 63.744 287.532 62.464C286.294 61.184 285.675 59.264 285.675 56.704C285.675 55.6373 285.846 54.2507 286.188 52.544L290.54 32H299.756L295.148 53.76C295.02 54.4 294.956 54.9973 294.956 55.552C294.956 57.3013 295.596 58.176 296.876 58.176C298.07 58.176 299.094 57.6853 299.948 56.704C300.801 55.68 301.484 54.2933 301.996 52.544L306.348 32H315.564L310.956 53.76C310.785 54.4 310.7 55.0827 310.7 55.808C310.7 56.6613 310.892 57.28 311.276 57.664C311.702 58.0053 312.385 58.176 313.324 58.176C314.518 58.176 315.542 57.664 316.396 56.64C317.292 55.616 317.996 54.2507 318.507 52.544H321.196C319.617 57.152 317.654 60.288 315.308 61.952C313.004 63.5733 310.678 64.384 308.332 64.384C306.497 64.384 305.025 63.872 303.916 62.848C302.849 61.824 302.209 60.3093 301.996 58.304C300.545 60.6507 299.009 62.2507 297.388 63.104C295.809 63.9573 294.188 64.384 292.524 64.384ZM340.9 64.384C338.809 64.384 337.103 63.744 335.78 62.464C334.5 61.1413 333.86 59.4133 333.86 57.28C333.86 56.256 334.009 55.104 334.308 53.824C334.351 53.5253 334.415 53.0773 334.5 52.48C334.585 51.8827 334.628 51.392 334.628 51.008C334.628 50.112 334.436 49.408 334.052 48.896C333.668 48.384 333.092 48.128 332.324 48.128C331.727 48.128 331.172 48.2987 330.66 48.64C330.148 48.9387 329.295 49.5573 328.1 50.496L325.284 64H316.068L322.916 32H332.132L329.38 44.672C331.599 42.4533 333.604 40.3413 335.396 38.336C337.145 36.4587 338.468 35.0933 339.364 34.24C340.303 33.344 341.241 32.6613 342.18 32.192C343.119 31.68 344.143 31.424 345.252 31.424C346.745 31.424 347.876 31.808 348.644 32.576C349.412 33.344 349.796 34.3893 349.796 35.712C349.796 36.992 349.433 37.9947 348.708 38.72C348.025 39.4453 347.044 39.808 345.764 39.808C344.527 39.808 343.631 39.488 343.076 38.848C342.521 38.1653 342.244 37.3973 342.244 36.544C341.391 37.0987 340.601 37.7173 339.876 38.4C339.193 39.04 338.255 40 337.06 41.28C335.524 42.944 334.735 43.7973 334.692 43.84C335.545 43.6693 336.441 43.584 337.38 43.584C341.519 43.584 343.588 45.4613 343.588 49.216C343.588 50.1547 343.417 51.3493 343.076 52.8C342.777 53.9093 342.628 54.848 342.628 55.616C342.628 57.3227 343.524 58.176 345.316 58.176C346.425 58.176 347.279 57.9627 347.876 57.536C347.663 59.7973 346.937 61.504 345.7 62.656C344.463 63.808 342.863 64.384 340.9 64.384Z" fill="#351918"/>
</svg>
